<svg id="galaxy_icon" data-name="Galaxy icon" xmlns="http://www.w3.org/2000/svg" viewBox="0 0 60 60">
  <defs>
    <style type="text/css">
      path.galaxy_white {
        fill: #fff;
      }
      path#galaxy_limbs {
        transform-origin: 50% 50%;
        transform: rotateY(-30deg) rotateX(60deg) rotateZ(-180deg);
        animation-name: orbit;
        animation-duration: 3s;
        animation-fill-mode: both;
        animation-timing-function: linear;
        animation-iteration-count: infinite;
      }
      path#galaxy_center {
        transform-origin: 50% 50%;
        transform: rotateY(-30deg) rotateX(60deg) rotateZ(-180deg);
        animation-name: orbit;
        animation-duration: 3s;
        animation-fill-mode: both;
        animation-timing-function: linear;
        animation-iteration-count: infinite;
      }
      @keyframes orbit {
        0% {
          transform: rotateY(-30deg) rotateX(60deg) rotateZ(0deg);
        }
        100% {
          transform: rotateY(-30deg) rotateX(60deg) rotateZ(-360deg);
        }
      }
      <!--transforms and animations can be done in css or in SMIL or in combination. css is a bit easier to understand as it supports 3D rotations - sb-->
    </style>
  </defs>
  <title>Galaxy icon</title>
    <g>
      <path id="galaxy_limbs" class="galaxy_white" d="M52.84,21.25c-.31-.5-.6-1-1-1.48-.17-.24-.32-.49-.5-.73l-.53-.7c-.18-.24-.38-.45-.56-.68s-.37-.45-.58-.67c-.4-.42-.79-.86-1.23-1.27a21.46,21.46,0,0,0-2.78-2.24A21,21,0,0,0,28.5,10.65a20.7,20.7,0,0,0-6.53,3,22.09,22.09,0,0,0-2.8,2.3,17.46,17.46,0,0,0-5,9.75,17.7,17.7,0,0,0,.44,7.42,17.41,17.41,0,0,0,3.53,6.59c.2.25.42.47.64.7s.45.45.68.68a13.45,13.45,0,0,0,1.5,1.21,14.31,14.31,0,0,0,17.93-1.15l.35-.33a3.76,3.76,0,0,0,.34-.35l.66-.75.21-.28c-.06.09-.1.18-.15.27a13.79,13.79,0,0,1-1.83,2.34,18.22,18.22,0,0,1-2.3,2,17.63,17.63,0,0,1-5.48,2.7A18,18,0,0,1,13.4,42.73c-.39-.34-.75-.73-1.12-1.11-.19-.18-.35-.39-.53-.58s-.35-.39-.51-.61l-.49-.61c-.16-.21-.31-.43-.46-.64-.32-.42-.59-.88-.88-1.32A23.33,23.33,0,0,1,6,25.8V25c0-.27,0-.53,0-.8l0-.39,0-.4c0-.26,0-.53.08-.79a25.56,25.56,0,0,1,.65-3.13A23.06,23.06,0,0,1,9.4,13.64a23.39,23.39,0,0,1,4-5c.45-.43.91-.85,1.39-1.25A7.85,7.85,0,0,1,18,4.05a30.81,30.81,0,0,1,5.19-2.78C24.27.8,25.38.37,26.51,0A30.32,30.32,0,0,0,7.73,12.6a25.08,25.08,0,0,0-2.92,6.3A27.92,27.92,0,0,0,4,22.3c-.05.28-.08.57-.12.86l-.06.43,0,.44c0,.29,0,.58-.07.87l0,.87A25.69,25.69,0,0,0,7.17,39.2c.31.5.6,1,.94,1.49.17.24.33.49.51.72l.53.7c.17.24.37.45.56.68s.37.45.57.67c.4.43.8.86,1.24,1.27A21.53,21.53,0,0,0,14.3,47,21.1,21.1,0,0,0,38,46.78a22,22,0,0,0,2.8-2.31,17.39,17.39,0,0,0,5-9.75,17.72,17.72,0,0,0-.43-7.42,17.5,17.5,0,0,0-3.54-6.59c-.19-.24-.41-.47-.63-.7s-.45-.45-.68-.67a14.35,14.35,0,0,0-19.44-.07l-.35.34c-.11.11-.23.22-.34.34l-.66.76a2.83,2.83,0,0,0-.2.28l.15-.27a13.06,13.06,0,0,1,1.84-2.35,19.14,19.14,0,0,1,2.3-2,17.66,17.66,0,0,1,5.47-2.69A17.88,17.88,0,0,1,35.44,13a18.26,18.26,0,0,1,8.72,2.84,18,18,0,0,1,2.45,1.9c.39.34.75.73,1.12,1.11.18.18.35.39.52.58a7.6,7.6,0,0,1,.52.61l.49.61c.16.21.3.43.46.64.32.42.59.88.88,1.32A23.33,23.33,0,0,1,54,34.65v.8c0,.27,0,.53,0,.8l0,.39,0,.4c0,.26-.05.53-.09.79A23.28,23.28,0,0,1,47.1,51.28.81.81,0,0,1,47,52.53,51.36,51.36,0,0,1,35.29,60a30.13,30.13,0,0,0,17-12.15,25.08,25.08,0,0,0,2.92-6.3A28.2,28.2,0,0,0,56,38.16c.05-.29.08-.58.12-.87l0-.43,0-.44c0-.29,0-.58.07-.87l0-.87A25.8,25.8,0,0,0,52.84,21.25Zm-22.6-2.91A11.19,11.19,0,1,1,19.05,29.53,11.19,11.19,0,0,1,30.24,18.34Z"/>
      <path id="galaxy_center" class="galaxy_white" d="M30.2,39.7c5.6,0,10.2-4.6,10.2-10.2c0-5.6-4.6-10.2-10.2-10.2S20,23.9,20,29.5c0,0,0,0,0,0 C20,35.2,24.6,39.7,30.2,39.7z M30.2,22.3c4,0,7.3,3.3,7.3,7.3s-3.3,7.3-7.3,7.3c-4,0-7.3-3.3-7.3-7.3c0,0,0,0,0,0 C23,25.5,26.2,22.3,30.2,22.3L30.2,22.3z"/>
    </g>
</svg>
